<?xml version="1.0" encoding="utf-8"?>
<svg version="1.1" width="512" height="512" xmlns="http://www.w3.org/2000/svg">
 <g>
  <title>background</title>
  <rect x="-1" y="-1" width="514" height="514" id="canvas_background" fill="none"/>
 </g>

 <g>
  <title>Layer 1</title>
  <rect x="245.33" y="15.938" width="21" height="84.19" fill="#CCD1D9" id="svg_1"/>
  <g id="svg_2">
   <path d="m74.672,309.344l0,106.656c0,5.891 4.766,10.672 10.656,10.672s10.672,-4.781 10.672,-10.672l0,-106.656l-21.328,0z" fill="#434A54" id="svg_3"/>
   <path d="m416,309.344l0,106.328c0,5.891 4.781,10.672 10.672,10.672s10.656,-4.781 10.656,-10.672l0,-106.328l-21.328,0z" fill="#434A54" id="svg_4"/>
  </g>
  <g id="svg_5">
   <path d="m85.328,234.672l71.109,0l0,85.328l-71.109,0c-23.562,0 -42.656,-19.094 -42.656,-42.656c0,-23.578 19.094,-42.672 42.656,-42.672z" fill="#CCD1D9" id="svg_6"/>
   <path d="m426.672,234.672l-71.109,0l0,85.328l71.109,0c23.562,0 42.656,-19.094 42.656,-42.656c0,-23.578 -19.094,-42.672 -42.656,-42.672z" fill="#CCD1D9" id="svg_7"/>
  </g>
  <circle cx="256" cy="426.67" r="85.33" fill="#434A54" id="svg_8"/>
  <path d="m404.328,246.344c0,-82.485 -66.859,-149.344 -149.328,-149.344s-149.328,66.859 -149.328,149.344l0,202.656c0,11.781 9.547,21.344 21.328,21.344l256,0c11.781,0 21.328,-9.562 21.328,-21.344l0,-202.656l0,0z" fill="#00f200" id="svg_9"/>
  <path d="m105.672,245.344l0,10.656l298.656,0l0,-10.656l0,0c0,-3.594 -0.125,-7.156 -0.375,-10.672l-297.906,0c-0.25,3.516 -0.375,7.078 -0.375,10.672z" fill="#aaffaa" id="svg_10"/>
  <circle cx="256" cy="32" r="32" fill="#00f200" id="svg_11"/>
  <g id="svg_36">
   <path d="m221.34401,174.17613c0,8.92931 -4.781,16.15187 -10.672,16.15187s-10.672,-7.22408 -10.672,-16.15187s4.781,-16.17613 10.672,-16.17613s10.672,7.24682 10.672,16.17613z" fill="#434A54" id="svg_13" stroke="null"/>
   <path d="m311.34399,174.17613c0,8.9293 -4.781,16.15187 -10.672,16.15187s-10.672,-7.22408 -10.672,-16.15187s4.781,-16.17613 10.672,-16.17613s10.672,7.24682 10.672,16.17613z" fill="#434A54" id="svg_34" stroke="null"/>
  </g>
  <g id="svg_37">
   <path d="m320,309.344c0,5.891 -4.781,10.656 -10.672,10.656s-10.656,-4.766 -10.656,-10.656s4.766,-10.672 10.656,-10.672s10.672,4.781 10.672,10.672z" fill="#b3b7bc" id="svg_12" stroke="null"/>
   <path d="m362.672,309.344c0,5.891 -4.781,10.656 -10.672,10.656s-10.672,-4.766 -10.672,-10.656s4.781,-10.672 10.672,-10.672s10.672,4.781 10.672,10.672z" fill="#b3b7bc" id="svg_14" stroke="null"/>
   <g id="svg_15">
    <path d="m202.672,298.672l-42.672,0c-5.891,0 -10.672,4.781 -10.672,10.672s4.781,10.656 10.672,10.656l42.672,0c5.891,0 10.656,-4.766 10.656,-10.656s-4.766,-10.672 -10.656,-10.672z" fill="#b3b7bc" id="svg_17"/>
   </g>
  </g>
 </g>
</svg>