<?xml version="1.0" encoding="utf-8"?>
<svg version="1.1" width="512" height="512" xmlns="http://www.w3.org/2000/svg">
 <g>
  <title>background</title>
  <rect id="canvas_background" fill="none" height="602" width="802" y="-1" x="-1"/>
 </g>

 <g>
  <title>Layer 1</title>
  <rect id="svg_1" fill="#CCD1D9" height="84.19" width="21" y="15.938" x="245.33"/>
  <g id="svg_2">
   <path id="svg_3" fill="#434A54" d="m74.672,309.344l0,106.656c0,5.891 4.766,10.672 10.656,10.672s10.672,-4.781 10.672,-10.672l0,-106.656l-21.328,0z"/>
   <path id="svg_4" fill="#434A54" d="m416,309.344l0,106.328c0,5.891 4.781,10.672 10.672,10.672s10.656,-4.781 10.656,-10.672l0,-106.328l-21.328,0z"/>
  </g>
  <g id="svg_5">
   <path id="svg_6" fill="#CCD1D9" d="m85.328,234.672l71.109,0l0,85.328l-71.109,0c-23.562,0 -42.656,-19.094 -42.656,-42.656c0,-23.578 19.094,-42.672 42.656,-42.672z"/>
   <path id="svg_7" fill="#CCD1D9" d="m426.672,234.672l-71.109,0l0,85.328l71.109,0c23.562,0 42.656,-19.094 42.656,-42.656c0,-23.578 -19.094,-42.672 -42.656,-42.672z"/>
  </g>
  <circle id="svg_8" fill="#434A54" r="85.33" cy="426.67" cx="256"/>
  <path id="svg_9" fill="#E6E9ED" d="m404.328,246.344c0,-82.485 -66.859,-149.344 -149.328,-149.344s-149.328,66.859 -149.328,149.344l0,202.656c0,11.781 9.547,21.344 21.328,21.344l256,0c11.781,0 21.328,-9.562 21.328,-21.344l0,-202.656l0,0z"/>
  <path id="svg_10" fill="#AAB2BD" d="m106.672,245.344l0,10.656l298.656,0l0,-10.656l0,0c0,-3.594 -0.125,-7.156 -0.375,-10.672l-297.906,0c-0.25,3.516 -0.375,7.078 -0.375,10.672z"/>
  <circle id="svg_11" fill="#E6E9ED" r="32" cy="32" cx="256"/>
  <g id="svg_36">
   <path id="svg_13" fill="#434A54" stroke="null" d="m221.34401,174.17613c0,8.92931 -4.781,16.15187 -10.672,16.15187s-10.672,-7.22408 -10.672,-16.15187s4.781,-16.17613 10.672,-16.17613s10.672,7.24682 10.672,16.17613z"/>
   <path id="svg_34" fill="#434A54" stroke="null" d="m311.34399,174.17613c0,8.9293 -4.781,16.15187 -10.672,16.15187s-10.672,-7.22408 -10.672,-16.15187s4.781,-16.17613 10.672,-16.17613s10.672,7.24682 10.672,16.17613z"/>
  </g>
  <g id="svg_37">
   <path id="svg_12" fill="#ccd1d9" stroke="null" d="m320,309.344c0,5.891 -4.781,10.656 -10.672,10.656s-10.656,-4.766 -10.656,-10.656s4.766,-10.672 10.656,-10.672s10.672,4.781 10.672,10.672z"/>
   <path id="svg_14" fill="#ccd1d9" stroke="null" d="m362.672,309.344c0,5.891 -4.781,10.656 -10.672,10.656s-10.672,-4.766 -10.672,-10.656s4.781,-10.672 10.672,-10.672s10.672,4.781 10.672,10.672z"/>
   <g id="svg_15">
    <path id="svg_17" fill="#ccd1d9" d="m202.672,298.672l-42.672,0c-5.891,0 -10.672,4.781 -10.672,10.672s4.781,10.656 10.672,10.656l42.672,0c5.891,0 10.656,-4.766 10.656,-10.656s-4.766,-10.672 -10.656,-10.672z"/>
   </g>
  </g>
 </g>
</svg>